<?xml version="1.0" standalone="no"?>
<!DOCTYPE svg PUBLIC "-//W3C//DTD SVG 20010904//EN"
 "http://www.w3.org/TR/2001/REC-SVG-20010904/DTD/svg10.dtd">
<svg version="1.0" xmlns="http://www.w3.org/2000/svg"
 width="512.000000pt" height="512.000000pt" viewBox="0 0 512.000000 512.000000"
 preserveAspectRatio="xMidYMid meet">

<linearGradient xmlns="http://www.w3.org/2000/svg" id="gradient" x1="100%" y1="0%" x2="0%" y2="100%">
<stop offset="0%" stop-color="#f53d3d">
<animate attributeName="stop-color" values="#f53d3d; #f129bf; #f53d3d" dur="6s" repeatCount="indefinite"></animate>
</stop>
<stop offset="100%" stop-color="#f129bf">
<animate attributeName="stop-color" values="#f129bf; #f53d3d; #f129bf" dur="6s" repeatCount="indefinite"></animate>
</stop>
</linearGradient>

<g transform="translate(0.000000,512.000000) scale(0.100000,-0.100000)"
fill="url('#gradient')" stroke="none">
<path d="M2219 5106 c-95 -25 -193 -107 -240 -198 -50 -98 -49 -66 -49 -1372
l0 -1220 -253 252 c-225 223 -262 255 -322 283 -117 55 -247 54 -365 -2 -55
-27 -98 -65 -286 -253 -192 -193 -225 -230 -255 -291 -32 -65 -34 -76 -34
-170 0 -90 3 -106 28 -156 24 -46 186 -213 950 -976 615 -613 937 -928 967
-945 69 -37 136 -52 235 -53 165 0 85 -69 1127 973 874 874 919 920 950 987
30 65 33 78 33 170 0 92 -3 105 -33 169 -29 61 -59 96 -240 278 -271 274 -326
309 -472 309 -54 0 -95 -7 -136 -22 -54 -20 -81 -43 -336 -297 l-278 -276 0
1235 c0 1367 4 1288 -64 1394 -61 95 -156 161 -264 184 -74 16 -602 14 -663
-3z m628 -349 c17 -17 18 -94 23 -1480 6 -1613 0 -1498 69 -1544 38 -26 127
-32 178 -12 15 6 210 192 434 415 223 222 409 404 415 404 19 0 414 -406 414
-425 0 -22 -1762 -1791 -1793 -1801 -9 -3 -32 4 -50 15 -55 35 -1797 1784
-1797 1805 0 12 79 99 198 218 190 191 199 198 237 198 38 0 48 -8 440 -399
438 -437 438 -438 521 -411 55 17 104 57 120 96 12 28 14 264 14 1466 0 1294
2 1436 16 1456 l16 23 264 -3 c237 -3 265 -5 281 -21z"/>
</g>
</svg>
