<?xml version="1.0" standalone="no"?>
<!DOCTYPE svg PUBLIC "-//W3C//DTD SVG 20010904//EN"
 "http://www.w3.org/TR/2001/REC-SVG-20010904/DTD/svg10.dtd">
<svg version="1.0" xmlns="http://www.w3.org/2000/svg"
width="512.000000pt" height="512.000000pt" viewBox="0 0 512.000000 512.000000"
preserveAspectRatio="xMidYMid meet">

<linearGradient xmlns="http://www.w3.org/2000/svg" id="gradient" x1="100%" y1="0%" x2="0%" y2="100%">
<stop offset="0%" stop-color="#f53d3d">
<animate attributeName="stop-color" values="#f53d3d; #f129bf; #f53d3d" dur="6s" repeatCount="indefinite"></animate>
</stop>
<stop offset="100%" stop-color="#f129bf">
<animate attributeName="stop-color" values="#f129bf; #f53d3d; #f129bf" dur="6s" repeatCount="indefinite"></animate>
</stop>
</linearGradient>

<g transform="translate(0.000000,512.000000) scale(0.100000,-0.100000)"
fill="url('#gradient')" stroke="none">
<path d="M2490 4884 c-259 -28 -491 -170 -627 -384 -70 -110 -1754 -3031
-1784 -3095 -52 -109 -72 -206 -72 -350 -1 -95 4 -147 17 -195 83 -303 302
-522 606 -602 l85 -23 1845 0 1845 0 85 23 c304 80 523 299 606 602 13 48 18
100 17 195 0 144 -20 241 -72 350 -30 64 -1714 2985 -1784 3095 -114 179 -310
318 -511 364 -67 15 -201 26 -256 20z m156 -155 c188 -26 364 -132 463 -278
57 -83 1758 -3033 1797 -3115 85 -179 83 -388 -6 -571 -67 -138 -169 -242
-304 -310 -153 -76 14 -70 -2036 -70 -2050 0 -1883 -6 -2036 70 -135 68 -237
172 -304 310 -89 183 -91 392 -6 571 39 82 1740 3032 1797 3115 96 142 276
252 451 278 89 12 97 12 184 0z"/>
<path d="M2482 4480 c-102 -21 -200 -82 -256 -159 -63 -85 -836 -1435 -836
-1458 0 -31 42 -73 73 -73 14 0 34 8 45 18 12 9 179 292 373 627 461 801 452
786 490 823 51 50 114 75 189 75 94 0 164 -36 222 -113 53 -72 1753 -3027
1771 -3080 45 -130 -18 -274 -147 -332 l-51 -23 -1795 0 -1795 0 -51 23 c-124
56 -190 198 -151 324 8 26 197 363 421 750 223 387 406 714 406 726 0 31 -43
72 -75 72 -14 0 -36 -10 -48 -22 -12 -13 -206 -340 -429 -728 -445 -772 -446
-773 -434 -902 12 -134 76 -244 186 -321 112 -78 -50 -72 1970 -72 2020 0
1858 -6 1970 72 149 104 219 285 176 453 -14 53 -183 352 -897 1590 -484 839
-898 1548 -919 1576 -87 116 -267 184 -408 154z"/>
<path d="M2444 3809 c-109 -42 -186 -141 -204 -265 -12 -87 -13 -1336 -1
-1422 12 -80 41 -140 94 -192 76 -77 178 -108 284 -89 74 14 119 37 170 89 53
52 82 112 94 192 12 86 11 1335 -1 1422 -25 170 -157 287 -323 285 -37 0 -83
-8 -113 -20z m196 -149 c21 -11 49 -34 62 -52 l23 -33 3 -730 c2 -530 -1 -737
-9 -758 -16 -38 -71 -84 -119 -98 -31 -10 -49 -10 -80 0 -48 14 -103 60 -119
98 -8 21 -11 228 -9 758 l3 730 23 33 c49 68 146 91 222 52z"/>
<path d="M2444 1659 c-67 -26 -132 -83 -169 -150 -27 -49 -30 -62 -30 -149 0
-111 19 -162 88 -230 51 -52 96 -75 170 -89 106 -19 208 12 284 89 69 68 88
119 88 230 0 87 -3 100 -30 149 -79 143 -251 208 -401 150z m196 -149 c54 -27
83 -72 88 -137 5 -64 -9 -103 -54 -143 -48 -41 -103 -56 -154 -41 -49 14 -103
60 -120 101 -18 44 -8 130 19 169 48 67 145 90 221 51z"/>
</g>
</svg>
